Coordinates
version=1
nRows=16
nColumns=36
inDegrees=yes

Units are S.I. units (second, meters, Newtons, ...)
If the header above contains a line with 'inDegrees', this indicates whether rotational values are in degrees (yes) or radians (no).

endheader
time	pelvis_tilt	pelvis_list	pelvis_rotation	pelvis_tx	pelvis_ty	pelvis_tz	hip_flexion_r	hip_adduction_r	hip_rotation_r	knee_angle_r	knee_angle_r_beta	ankle_angle_r	subtalar_angle_r	mtp_angle_r	hip_flexion_l	hip_adduction_l	hip_rotation_l	knee_angle_l	knee_angle_l_beta	ankle_angle_l	subtalar_angle_l	mtp_angle_l	lumbar_extension	lumbar_bending	lumbar_rotation	arm_flex_r	arm_add_r	arm_rot_r	elbow_flex_r	pro_sup_r	arm_flex_l	arm_add_l	arm_rot_l	elbow_flex_l	pro_sup_l
      0.00000000	      4.82610485	     -1.51270535	      1.20710475	      0.15240017	      1.24688367	     -0.54230128	     -4.81066039	      2.01708093	     -3.52352320	      8.37435695	      0.14616010	     13.36835702	     -3.86196010	     -7.12889006	     -2.25748845	     -5.10562244	      2.41246023	     10.70232670	      0.18679084	      8.65146436	     -4.70954878	     -7.12889006	    -11.09221175	      3.37755342	     -4.67429950	      7.09899330	    -13.21374595	     10.25424094	     31.07433698	     85.75009321	     -6.30176828	    -11.85847632	     -2.62158924	     26.45478286	     84.13772152
      0.01666670	      5.08333183	     -1.77842077	      1.44872292	      0.15299928	      1.24633368	     -0.54352972	     -5.18466336	      2.35706307	     -2.38673022	      8.25624980	      0.14409874	     13.87482829	     -3.78402896	     -7.17882356	     -2.80940490	     -5.44051066	      3.03462518	      9.38296529	      0.16376364	      8.84327802	     -5.40262429	     -7.17882356	    -11.60045353	      3.98674555	     -4.38962572	      7.84539235	    -12.71207729	      9.70550371	     33.44867723	     83.62084928	     -6.18291326	    -11.57210403	     -2.96688562	     27.40271243	     82.35562704
      0.03333330	      4.85078991	     -1.98719993	      1.30833859	      0.15286425	      1.25025421	     -0.54368120	     -5.19801808	      2.73367396	     -2.24004538	      7.76577252	      0.13553830	     12.73132149	     -3.75620004	     -7.20469311	     -2.73091170	     -5.86529333	      3.79797314	      8.76186898	      0.15292346	      9.19528986	     -4.62085005	     -7.20469311	    -11.90963065	      4.40229756	     -3.45191636	      8.02306778	    -12.45251327	      8.77439780	     35.29773091	     81.99646185	     -5.65721013	    -11.20423787	     -4.63174599	     27.04227679	     81.50021866
      0.05000000	      4.20281586	     -2.06808983	      1.11071367	      0.15320485	      1.24949854	     -0.54347521	     -4.28092341	      2.84424497	     -2.32284134	      8.00562206	      0.13972446	     12.63077386	     -3.73258800	     -7.24249157	     -1.96853581	     -6.14351456	      3.60289953	      8.78720054	      0.15336558	      9.43224429	     -3.85940935	     -7.24249157	    -11.36844854	      4.50131216	     -3.10315079	      8.73559904	    -11.99513738	      8.54677403	     35.75649045	     79.94675920	     -6.13401894	    -11.50059419	     -6.31391503	     25.60252903	     79.73045723
      0.06666670	      3.73394912	     -2.09325273	      0.62624816	      0.15265603	      1.24677217	     -0.54331068	     -3.29489226	      2.92698583	     -1.62229886	      8.60700659	      0.15022060	     12.76194971	     -4.19251616	     -7.28279349	     -1.32229206	     -6.33918737	      3.09159620	      9.50356074	      0.16586843	      9.90932770	     -3.13697910	     -7.28279349	    -11.07522407	      4.47013808	     -3.00795759	      9.78777133	    -11.53784442	      8.99039610	     36.33721432	     77.98437681	     -6.52603205	    -11.69861932	     -8.04043288	     24.15729461	     78.03249139
      0.08333330	      3.33022945	     -2.07331243	      0.35635545	      0.15313595	      1.25098780	     -0.54305938	     -2.54084131	      2.91875580	     -1.10438826	      9.10660923	      0.15894031	     12.74989770	     -4.48139947	     -7.28977996	     -0.84583652	     -6.53562527	      2.30155978	      9.96465586	      0.17391605	      9.82024902	     -2.48840358	     -7.28977996	    -10.82632093	      4.37292679	     -3.33470434	     10.20854590	    -10.97788141	      8.86630967	     37.07810882	     77.48483641	     -6.24273492	    -11.61999418	     -8.14969750	     24.57470871	     77.86238308
      0.10000000	      2.95875720	     -2.09691577	      0.04266279	      0.15369725	      1.25074040	     -0.54283417	     -1.90927183	      2.96421105	     -0.56979917	      9.45148424	      0.16495952	     12.60678483	     -4.69942896	     -7.32267211	     -0.46303861	     -6.72175391	      1.61451636	     10.35735144	      0.18076988	      9.68821808	     -2.10433534	     -7.32267211	    -10.60338209	      4.35604483	     -3.46760481	     10.00835967	    -10.49127177	      8.73449537	     39.19939358	     75.44531772	     -6.40953035	    -11.53372020	     -8.06480136	     25.94837757	     76.04290882
      0.11666670	      2.46626539	     -2.13252831	     -0.21007841	      0.15433094	      1.25421708	     -0.54278475	     -1.08747703	      3.02301094	      0.01723841	      9.91003887	      0.17296281	     12.45382035	     -4.88803522	     -7.32729322	      0.16678107	     -6.88673030	      0.97611259	     10.84214187	      0.18923107	      9.69664746	     -1.63588609	     -7.32729322	    -10.11346800	      4.40752328	     -3.62649514	     10.22897570	     -9.95833775	      8.79434532	     40.18634500	     75.13123342	     -6.06147145	    -11.47134031	     -7.80731560	     26.40654516	     75.95096675
      0.13333330	      2.12353767	     -2.21935412	     -0.35927812	      0.15425619	      1.25786876	     -0.54304463	     -0.55218671	      3.14783314	      0.48947289	     10.18453174	      0.17775361	     12.16212452	     -5.10259424	     -7.36306362	      0.62827577	     -7.09008192	      0.41749242	     11.22370498	      0.19589061	      9.68770711	     -1.19339003	     -7.36306362	     -9.90670458	      4.43957223	     -3.51781584	      9.71167611	     -9.50209153	      8.60582293	     42.20078438	     72.52845088	     -5.62576834	    -11.48383384	     -6.73498108	     27.22688701	     73.78556298
      0.15000000	      1.91359798	     -2.31528510	     -0.40952796	      0.15466482	      1.25707530	     -0.54325403	     -0.18951249	      3.27685697	      0.76022465	     10.42247991	      0.18190659	     11.99260251	     -5.02824874	     -7.37475287	      0.96332013	     -7.25139525	      0.16895563	     11.50534482	      0.20080615	      9.52927508	     -1.19457444	     -7.37475287	     -9.81592436	      4.51176156	     -3.76054366	      9.48956732	     -9.02519842	      8.68426820	     43.59632260	     71.90621426	     -5.29736142	    -11.54156677	     -6.37976971	     28.16034374	     73.22731572
      0.16666670	      1.65082804	     -2.39152575	     -0.45760977	      0.15453340	      1.25633843	     -0.54354850	      0.19752300	      3.36832601	      0.96558702	     10.65434160	      0.18595334	     11.91108782	     -4.94184380	     -7.38626478	      1.38009611	     -7.40069254	     -0.13173009	     11.73826047	      0.20487129	      9.52035361	     -1.16349209	     -7.38626478	     -9.67062643	      4.50246361	     -3.81676922	      9.13707019	     -8.62827152	      8.96838119	     44.89554333	     71.25450670	     -4.43057158	    -11.76354270	     -5.87854317	     29.01725880	     72.63550548
      0.18333330	      1.37640861	     -2.45300373	     -0.55768517	      0.15458799	      1.25537214	     -0.54358818	      0.60367255	      3.43119408	      1.12163175	     10.96886634	      0.19144283	     11.91350475	     -4.86673778	     -7.41352459	      1.75168030	     -7.52327979	     -0.42139093	     11.97903669	      0.20907363	      9.65512228	     -1.07648957	     -7.41352459	     -9.36150119	      4.52517736	     -3.65541685	      8.54980934	     -8.50150924	      9.60271993	     45.81945943	     70.11470147	     -3.14644872	    -11.98998403	     -4.19907610	     29.06471572	     71.64269742
      0.20000000	      1.43129466	     -2.52151957	     -0.61621698	      0.15419951	      1.25519220	     -0.54374314	      0.70943537	      3.51287350	      1.31569023	     11.43627007	      0.19960057	     12.00463932	     -4.98505372	     -7.42573026	      1.72299865	     -7.63809070	     -0.61701661	     12.26936918	      0.21414089	      9.53238257	     -1.03503552	     -7.42573026	     -9.55283972	      4.54008897	     -3.64924497	      7.90123814	     -8.19570359	      9.87309628	     46.83141114	     69.07332398	     -2.30672528	    -12.13257075	     -3.68414021	     30.23975530	     70.49711688
      0.21666670	      1.29888006	     -2.56638433	     -0.73465728	      0.15420187	      1.25439855	     -0.54377744	      1.02235244	      3.55543573	      1.42500401	     11.92298245	      0.20809530	     12.11746811	     -5.03979584	     -7.43297802	      1.96357768	     -7.74085822	     -0.82388612	     12.65613349	      0.22089120	      9.62419630	     -1.06940744	     -7.43297802	     -9.42588270	      4.55520268	     -3.72984535	      7.36925791	     -8.07747592	     10.42349396	     47.24059059	     68.70820304	     -1.57790104	    -12.23664666	     -3.28375031	     30.90109740	     70.02415294
      0.23333330	      1.06950358	     -2.59378381	     -0.81521944	      0.15388422	      1.25010815	     -0.54393130	      1.47643963	      3.57891538	      1.51076097	     12.52067929	      0.21852708	     12.35441975	     -5.16624106	     -7.43207222	      2.22327267	     -7.80050152	     -0.91712283	     12.97065727	      0.22638068	      9.63831759	     -1.21015969	     -7.43207222	     -9.03502102	      4.56582377	     -3.75389996	      6.92630271	     -8.15024925	     11.34101682	     47.36803794	     68.90046534	     -0.89444295	    -12.41594652	     -2.31528110	     30.92067205	     70.05856762
      0.25000000	      1.05186362	     -2.61774828	     -0.95542166	      0.15378275	      1.24972357	     -0.54381368	      1.65555616	      3.60579763	      1.64575733	     12.99386298	      0.22678569	     12.60672788	     -5.19545474	     -7.44011608	      2.21341655	     -7.83788596	     -1.12400979	     13.18495196	      0.23012082	      9.84462925	     -1.00365021	     -7.44011608	     -9.11858627	      4.59789812	     -3.57686834	      6.44805217	     -8.23221233	     11.59076136	     47.68459588	     68.17358392	     -0.49692783	    -12.44039588	     -2.08014799	     32.13565115	     69.21336222
